<?xml version="1.0" encoding="UTF-8" standalone="no"?>
<svg
   xmlns:dc="http://purl.org/dc/elements/1.1/"
   xmlns:cc="http://creativecommons.org/ns#"
   xmlns:rdf="http://www.w3.org/1999/02/22-rdf-syntax-ns#"
   xmlns:svg="http://www.w3.org/2000/svg"
   xmlns="http://www.w3.org/2000/svg"
   viewBox="0 0 702.66669 566.66669"
   height="566.66669"
   width="702.66669"
   xml:space="preserve"
   id="svg80"
   version="1.1"><metadata
     id="metadata86"><rdf:RDF><cc:Work
         rdf:about=""><dc:format>image/svg+xml</dc:format><dc:type
           rdf:resource="http://purl.org/dc/dcmitype/StillImage" /><dc:title></dc:title></cc:Work></rdf:RDF></metadata><defs
     id="defs84"><clipPath
       id="clipPath118"
       clipPathUnits="userSpaceOnUse"><path
         id="path116"
         d="M 0,159.14 H 263.89 V 425.66 H 0 Z" /></clipPath><clipPath
       id="clipPath130"
       clipPathUnits="userSpaceOnUse"><path
         id="path128"
         d="M 57.04,195.54 H 258.42 V 420.18 H 57.04 Z" /></clipPath><clipPath
       id="clipPath330"
       clipPathUnits="userSpaceOnUse"><path
         id="path328"
         d="M 263.89,159.14 H 527.78 V 425.66 H 263.89 Z" /></clipPath><clipPath
       id="clipPath342"
       clipPathUnits="userSpaceOnUse"><path
         id="path340"
         d="M 320.93,195.54 H 522.31 V 420.18 H 320.93 Z" /></clipPath><clipPath
       id="clipPath544"
       clipPathUnits="userSpaceOnUse"><path
         id="path542"
         d="M 0,0 H 263.89 V 141.89 H 0 Z" /></clipPath><clipPath
       id="clipPath556"
       clipPathUnits="userSpaceOnUse"><path
         id="path554"
         d="m 41.44,36.4 h 216.98 v 100 H 41.44 Z" /></clipPath><clipPath
       id="clipPath752"
       clipPathUnits="userSpaceOnUse"><path
         id="path750"
         d="M 263.89,0 H 527.78 V 141.89 H 263.89 Z" /></clipPath><clipPath
       id="clipPath764"
       clipPathUnits="userSpaceOnUse"><path
         id="path762"
         d="m 305.33,36.4 h 216.98 v 100 H 305.33 Z" /></clipPath></defs><g
     transform="matrix(1.3333333,0,0,-1.3333333,0,566.66667)"
     id="g88"><g
       id="g90" /><g
       id="g92" /><g
       id="g94" /><g
       id="g96" /><g
       id="g98" /><g
       id="g100" /><g
       id="g102" /><g
       id="g104" /><g
       id="g106" /><g
       id="g108" /><g
       id="g110" /><g
       id="g112"><g
         clip-path="url(#clipPath118)"
         id="g114"><path
           id="path120"
           style="fill:#ffffff;fill-opacity:1;fill-rule:nonzero;stroke:#ffffff;stroke-width:1.07000005;stroke-linecap:round;stroke-linejoin:round;stroke-miterlimit:10;stroke-dasharray:none;stroke-opacity:1"
           d="M 0,159.14 H 263.89 V 425.66 H 0 Z" /></g></g><g
       id="g122" /><g
       id="g124"><g
         clip-path="url(#clipPath130)"
         id="g126"><path
           id="path132"
           style="fill:#ffffff;fill-opacity:1;fill-rule:nonzero;stroke:none"
           d="M 57.04,195.54 H 258.42 V 420.18 H 57.04 Z" /><path
           id="path134"
           style="fill:none;stroke:#440154;stroke-width:1.07000005;stroke-linecap:butt;stroke-linejoin:round;stroke-miterlimit:10;stroke-dasharray:none;stroke-opacity:1"
           d="m 66.19,205.75 1.87,2.09 1.87,2.08 1.86,2.08 1.87,2.09 1.87,2.08 1.87,2.09 1.87,2.08 1.87,2.08 1.86,2.09 1.87,2.08 1.87,2.08 1.87,2.09 1.87,2.08 1.86,2.09 1.87,2.08 1.87,2.08 1.87,2.09 1.87,2.08 1.86,2.08 1.87,2.09 1.87,2.08 1.87,2.09 1.87,2.08 1.86,2.08 1.87,2.09 1.87,2.08 1.87,2.09 1.87,2.08 1.86,2.08 1.87,2.09 1.87,2.08 1.87,2.08 1.87,2.09 1.86,2.08 1.87,2.09 1.87,2.08 1.87,2.08 1.87,2.09 1.87,2.08 1.86,2.08 1.87,2.09 1.87,2.08 1.87,2.09 1.87,2.08 1.86,2.08 1.87,2.09 1.87,2.08 1.87,2.09 1.87,2.08 1.86,2.08 1.87,2.09 1.87,2.08 1.87,2.08 1.87,2.09 1.86,2.08 1.87,2.09 1.87,2.08 1.87,2.08 1.87,2.09 1.86,2.08 1.87,2.09 1.87,2.08 1.87,2.08 1.87,2.09 1.87,2.08 1.86,2.08 1.87,2.09 1.87,2.08 1.87,2.09 1.87,2.08 1.86,2.08 1.87,2.09 1.87,2.08 1.87,2.08 1.87,2.09 1.86,2.08 1.87,2.09 1.87,2.08 1.87,2.08 1.87,2.09 1.86,2.08 1.87,2.09 1.87,2.08 1.87,2.08 1.87,2.09 1.86,2.08 1.87,2.08 1.87,2.09 1.87,2.08 1.87,2.09 1.86,2.08 1.87,2.08 1.87,2.09 1.87,2.08 1.87,2.08 1.87,2.09 1.86,2.08 1.87,2.09" /><path
           id="path136"
           style="fill:none;stroke:#440154;stroke-width:1.07000005;stroke-linecap:butt;stroke-linejoin:round;stroke-miterlimit:10;stroke-dasharray:2.13, 2.13;stroke-dashoffset:0;stroke-opacity:1"
           d="m 66.19,205.75 1.87,0.92 1.87,0.56 1.86,0.56 1.87,0.92 1.87,0.56 1.87,0.6 1.87,0.56 1.87,0.92 1.86,0.91 1.87,0.57 1.87,0.59 1.87,0.92 1.87,0.56 1.86,0.56 1.87,0.92 1.87,0.91 1.87,0.16 1.87,0.56 1.86,0.92 1.87,0.56 1.87,0.91 1.87,-1 1.87,0.23 1.86,0.6 1.87,0.6 1.87,0.15 1.87,0.56 1.87,0.92 1.86,-1.01 1.87,0.92 1.87,0.6 1.87,0.59 1.87,0.16 1.86,0.91 1.87,0.16 1.87,0.91 1.87,0.56 1.87,0.24 1.87,0.56 1.86,0.56 1.87,0.92 1.87,0.91 1.87,0.6 1.87,0.92 1.86,0.23 1.87,0.59 1.87,0.92 1.87,0.6 1.87,0.56 1.86,0.6 1.87,0.56 1.87,0.91 1.87,0.6 1.87,0.92 1.86,0.91 1.87,0.56 1.87,-0.72 1.87,-1 1.87,0.23 1.86,0.92 1.87,0.91 1.87,0.15 1.87,0.16 1.87,-0.73 1.87,0.92 1.86,0.92 1.87,0.56 1.87,0.6 1.87,0.15 1.87,0.91 1.86,0.57 1.87,0.59 1.87,0.92 1.87,0.91 1.87,0.92 1.86,0.15 1.87,0.24 1.87,0.91 1.87,0.6 1.87,0.91 1.86,0.92 1.87,0.59 1.87,0.57 1.87,0.91 1.87,0.57 1.86,0.91 1.87,0.56 1.87,0.92 1.87,0.23 1.87,0.92 1.86,0.56 1.87,0.6 1.87,0.23 1.87,0.15 1.87,0.16 1.87,0.91 1.86,0.92 1.87,0.91" /><text
           id="text140"
           style="font-variant:normal;font-weight:normal;font-size:11px;font-family:Helvetica;-inkscape-font-specification:Helvetica;writing-mode:lr-tb;fill:#440154;fill-opacity:1;fill-rule:nonzero;stroke:none"
           transform="matrix(1,0,0,-1,153.01,223.11)"><tspan
             id="tspan138"
             y="0"
             x="0 0 0 3.0580001 6.1160002 9.7790003 15.895 18.952999 21.395 24.452999">..ρ.(n.i.)</tspan></text>
<text
           id="text144"
           style="font-variant:normal;font-weight:normal;font-size:11px;font-family:Helvetica;-inkscape-font-specification:Helvetica;writing-mode:lr-tb;fill:#440154;fill-opacity:1;fill-rule:nonzero;stroke:none"
           transform="matrix(1,0,0,-1,160.98,303.91)"><tspan
             id="tspan142"
             y="0"
             x="0 0 3.0580001 6.1160002 9.7790003 12.221 18.337 21.065001 27.181">.ρ.(info)</tspan></text>
</g></g><g
       id="g146" /><g
       id="g148" /><g
       id="g150" /><g
       id="g152" /><g
       id="g154" /><g
       id="g156" /><g
       id="g158" /><g
       id="g160" /><g
       id="g162" /><g
       id="g164" /><g
       id="g166" /><g
       id="g168" /><g
       id="g170"><path
         id="path172"
         style="fill:none;stroke:#000000;stroke-width:1.07000005;stroke-linecap:butt;stroke-linejoin:round;stroke-miterlimit:10;stroke-dasharray:none;stroke-opacity:1"
         d="M 57.04,195.54 V 420.18" /></g><g
       id="g174" /><g
       id="g176" /><g
       id="g178"><text
         id="text182"
         style="font-variant:normal;font-weight:normal;font-size:11px;font-family:Helvetica;-inkscape-font-specification:Helvetica;writing-mode:lr-tb;fill:#4d4d4d;fill-opacity:1;fill-rule:nonzero;stroke:none"
         transform="matrix(1,0,0,-1,21.22,237.23)"><tspan
           id="tspan180"
           y="0"
           x="0 6.1160002 12.232 18.656 24.771999">1e+18</tspan></text>
<text
         id="text186"
         style="font-variant:normal;font-weight:normal;font-size:11px;font-family:Helvetica;-inkscape-font-specification:Helvetica;writing-mode:lr-tb;fill:#4d4d4d;fill-opacity:1;fill-rule:nonzero;stroke:none"
         transform="matrix(1,0,0,-1,21.22,283.07)"><tspan
           id="tspan184"
           y="0"
           x="0 6.1160002 12.232 18.656 24.771999">1e+40</tspan></text>
<text
         id="text190"
         style="font-variant:normal;font-weight:normal;font-size:11px;font-family:Helvetica;-inkscape-font-specification:Helvetica;writing-mode:lr-tb;fill:#4d4d4d;fill-opacity:1;fill-rule:nonzero;stroke:none"
         transform="matrix(1,0,0,-1,21.22,328.92)"><tspan
           id="tspan188"
           y="0"
           x="0 6.1160002 12.232 18.656 24.771999">1e+62</tspan></text>
<text
         id="text194"
         style="font-variant:normal;font-weight:normal;font-size:11px;font-family:Helvetica;-inkscape-font-specification:Helvetica;writing-mode:lr-tb;fill:#4d4d4d;fill-opacity:1;fill-rule:nonzero;stroke:none"
         transform="matrix(1,0,0,-1,21.22,374.76)"><tspan
           id="tspan192"
           y="0"
           x="0 6.1160002 12.232 18.656 24.771999">1e+84</tspan></text>
</g><g
       id="g196" /><g
       id="g198"><path
         id="path200"
         style="fill:none;stroke:#333333;stroke-width:1.07000005;stroke-linecap:butt;stroke-linejoin:round;stroke-miterlimit:10;stroke-dasharray:none;stroke-opacity:1"
         d="m 54.3,241.18 h 2.74" /><path
         id="path202"
         style="fill:none;stroke:#333333;stroke-width:1.07000005;stroke-linecap:butt;stroke-linejoin:round;stroke-miterlimit:10;stroke-dasharray:none;stroke-opacity:1"
         d="m 54.3,287.02 h 2.74" /><path
         id="path204"
         style="fill:none;stroke:#333333;stroke-width:1.07000005;stroke-linecap:butt;stroke-linejoin:round;stroke-miterlimit:10;stroke-dasharray:none;stroke-opacity:1"
         d="m 54.3,332.87 h 2.74" /><path
         id="path206"
         style="fill:none;stroke:#333333;stroke-width:1.07000005;stroke-linecap:butt;stroke-linejoin:round;stroke-miterlimit:10;stroke-dasharray:none;stroke-opacity:1"
         d="m 54.3,378.71 h 2.74" /></g><g
       id="g208" /><g
       id="g210" /><g
       id="g212" /><g
       id="g214" /><g
       id="g216" /><g
       id="g218" /><g
       id="g220"><path
         id="path222"
         style="fill:none;stroke:#000000;stroke-width:1.07000005;stroke-linecap:butt;stroke-linejoin:round;stroke-miterlimit:10;stroke-dasharray:none;stroke-opacity:1"
         d="M 57.04,195.54 H 258.41" /></g><g
       id="g224" /><g
       id="g226" /><g
       id="g228"><path
         id="path230"
         style="fill:none;stroke:#333333;stroke-width:1.07000005;stroke-linecap:butt;stroke-linejoin:round;stroke-miterlimit:10;stroke-dasharray:none;stroke-opacity:1"
         d="m 64.32,192.8 v 2.74" /><path
         id="path232"
         style="fill:none;stroke:#333333;stroke-width:1.07000005;stroke-linecap:butt;stroke-linejoin:round;stroke-miterlimit:10;stroke-dasharray:none;stroke-opacity:1"
         d="m 111.02,192.8 v 2.74" /><path
         id="path234"
         style="fill:none;stroke:#333333;stroke-width:1.07000005;stroke-linecap:butt;stroke-linejoin:round;stroke-miterlimit:10;stroke-dasharray:none;stroke-opacity:1"
         d="m 157.73,192.8 v 2.74" /><path
         id="path236"
         style="fill:none;stroke:#333333;stroke-width:1.07000005;stroke-linecap:butt;stroke-linejoin:round;stroke-miterlimit:10;stroke-dasharray:none;stroke-opacity:1"
         d="m 204.43,192.8 v 2.74" /><path
         id="path238"
         style="fill:none;stroke:#333333;stroke-width:1.07000005;stroke-linecap:butt;stroke-linejoin:round;stroke-miterlimit:10;stroke-dasharray:none;stroke-opacity:1"
         d="m 251.13,192.8 v 2.74" /></g><g
       id="g240" /><g
       id="g242"><text
         id="text246"
         style="font-variant:normal;font-weight:normal;font-size:11px;font-family:Helvetica;-inkscape-font-specification:Helvetica;writing-mode:lr-tb;fill:#4d4d4d;fill-opacity:1;fill-rule:nonzero;stroke:none"
         transform="matrix(1,0,0,-1,61.26,182.71)"><tspan
           id="tspan244"
           y="0"
           x="0">0</tspan></text>
<text
         id="text250"
         style="font-variant:normal;font-weight:normal;font-size:11px;font-family:Helvetica;-inkscape-font-specification:Helvetica;writing-mode:lr-tb;fill:#4d4d4d;fill-opacity:1;fill-rule:nonzero;stroke:none"
         transform="matrix(1,0,0,-1,104.91,182.71)"><tspan
           id="tspan248"
           y="0"
           x="0 6.1160002">25</tspan></text>
<text
         id="text254"
         style="font-variant:normal;font-weight:normal;font-size:11px;font-family:Helvetica;-inkscape-font-specification:Helvetica;writing-mode:lr-tb;fill:#4d4d4d;fill-opacity:1;fill-rule:nonzero;stroke:none"
         transform="matrix(1,0,0,-1,151.61,182.71)"><tspan
           id="tspan252"
           y="0"
           x="0 6.1160002">50</tspan></text>
<text
         id="text258"
         style="font-variant:normal;font-weight:normal;font-size:11px;font-family:Helvetica;-inkscape-font-specification:Helvetica;writing-mode:lr-tb;fill:#4d4d4d;fill-opacity:1;fill-rule:nonzero;stroke:none"
         transform="matrix(1,0,0,-1,198.31,182.71)"><tspan
           id="tspan256"
           y="0"
           x="0 6.1160002">75</tspan></text>
<text
         id="text262"
         style="font-variant:normal;font-weight:normal;font-size:11px;font-family:Helvetica;-inkscape-font-specification:Helvetica;writing-mode:lr-tb;fill:#4d4d4d;fill-opacity:1;fill-rule:nonzero;stroke:none"
         transform="matrix(1,0,0,-1,241.96,182.71)"><tspan
           id="tspan260"
           y="0"
           x="0 6.1160002 12.232">100</tspan></text>
</g><g
       id="g264" /><g
       id="g266" /><g
       id="g268" /><g
       id="g270" /><g
       id="g272" /><g
       id="g274" /><g
       id="g276" /><g
       id="g278"><text
         id="text282"
         style="font-variant:normal;font-weight:normal;font-size:14px;font-family:Helvetica;-inkscape-font-specification:Helvetica;writing-mode:lr-tb;fill:#000000;fill-opacity:1;fill-rule:nonzero;stroke:none"
         transform="matrix(0,1,1,0,15.53,275.13)"><tspan
           id="tspan280"
           y="0"
           x="0 8.6379995 16.422001 24.205999 31.99 35.098 42.882 46.773998 49.882 57.666">Population</tspan></text>
</g><g
       id="g284" /><g
       id="g286" /><g
       id="g288" /><g
       id="g290" /><g
       id="g292" /><g
       id="g294" /><g
       id="g296" /><g
       id="g298" /><g
       id="g300" /><g
       id="g302" /><g
       id="g304" /><g
       id="g306" /><g
       id="g308" /><g
       id="g310" /><g
       id="g312" /><g
       id="g314" /><g
       id="g316" /><g
       id="g318" /><g
       id="g320" /><g
       id="g322" /><g
       id="g324"><g
         clip-path="url(#clipPath330)"
         id="g326"><path
           id="path332"
           style="fill:#ffffff;fill-opacity:1;fill-rule:nonzero;stroke:#ffffff;stroke-width:1.07000005;stroke-linecap:round;stroke-linejoin:round;stroke-miterlimit:10;stroke-dasharray:none;stroke-opacity:1"
           d="M 263.89,159.14 H 527.78 V 425.66 H 263.89 Z" /></g></g><g
       id="g334" /><g
       id="g336"><g
         clip-path="url(#clipPath342)"
         id="g338"><path
           id="path344"
           style="fill:#ffffff;fill-opacity:1;fill-rule:nonzero;stroke:none"
           d="M 320.93,195.54 H 522.31 V 420.18 H 320.93 Z" /><path
           id="path346"
           style="fill:none;stroke:#440154;stroke-width:1.07000005;stroke-linecap:butt;stroke-linejoin:round;stroke-miterlimit:10;stroke-dasharray:none;stroke-opacity:1"
           d="m 330.08,205.75 1.87,3.23 1.87,3.22 1.87,-1.17 1.87,5.59 1.87,3.74 1.86,3.75 1.87,3.22 1.87,-1.16 1.87,-1.16 1.87,-1.16 1.86,5.59 1.87,3.74 1.87,-1.17 1.87,5.59 1.87,3.23 1.86,-1.18 1.87,5.59 1.87,-1.17 1.87,5.59 1.87,5.59 1.86,3.75 1.87,3.74 1.87,5.59 1.87,-1.17 1.87,-1.17 1.86,-1.16 1.87,-1.17 1.87,3.74 1.87,3.74 1.87,3.75 1.86,-1.16 1.87,3.22 1.87,-1.16 1.87,3.22 1.87,-1.16 1.87,-1.17 1.86,-1.16 1.87,-1.17 1.87,3.22 1.87,5.59 1.87,3.23 1.86,-1.19 1.87,-1.17 1.87,5.59 1.87,5.59 1.87,5.59 1.86,-1.19 1.87,-1.19 1.87,3.75 1.87,-1.16 1.87,3.74 1.86,-1.17 1.87,-1.16 1.87,-1.16 1.87,3.74 1.87,3.75 1.86,3.74 1.87,-1.16 1.87,5.59 1.87,-1.17 1.87,-1.16 1.87,-1.16 1.86,3.22 1.87,-1.17 1.87,5.59 1.87,-1.16 1.87,3.74 1.86,5.59 1.87,-1.17 1.87,-1.18 1.87,3.22 1.87,5.59 1.86,3.22 1.87,3.74 1.87,-1.16 1.87,5.59 1.87,3.75 1.86,-1.16 1.87,3.74 1.87,3.22 1.87,3.23 1.87,3.74 1.86,3.74 1.87,5.59 1.87,3.23 1.87,-1.2 1.87,5.59 1.86,3.22 1.87,-1.15 1.87,-1.16 1.87,5.58 1.87,-1.15 1.87,5.58 1.86,3.23 1.87,3.22 1.87,3.22 1.87,3.23 1.87,5.59" /><path
           id="path348"
           style="fill:none;stroke:#440154;stroke-width:1.07000005;stroke-linecap:butt;stroke-linejoin:round;stroke-miterlimit:10;stroke-dasharray:2.13, 2.13;stroke-dashoffset:0;stroke-opacity:1"
           d="m 330.08,205.75 1.87,2.82 1.87,2.83 1.87,-3.65 1.87,5.07 1.87,3.31 1.86,3.32 1.87,2.82 1.87,-3.65 1.87,-2.75 1.87,-2.76 1.86,5.07 1.87,3.32 1.87,-3.65 1.87,5.07 1.87,2.82 1.86,-4.78 1.87,5.07 1.87,-3.64 1.87,5.07 1.87,5.07 1.86,3.31 1.87,3.31 1.87,5.08 1.87,-3.65 1.87,-4.78 1.86,-2.76 1.87,-4.78 1.87,3.31 1.87,3.32 1.87,3.31 1.86,-2.76 1.87,2.83 1.87,-2.76 1.87,2.82 1.87,-3.64 1.87,-3.65 1.86,-3.64 1.87,-3.65 1.87,2.82 1.87,5.07 1.87,2.83 1.86,-8.34 1.87,-3.64 1.87,5.07 1.87,5.07 1.87,5.07 1.86,-8.33 1.87,-8.33 1.87,3.31 1.87,-2.75 1.87,3.31 1.86,-4.78 1.87,-2.76 1.87,-2.75 1.87,3.31 1.87,3.31 1.86,3.31 1.87,-2.75 1.87,5.07 1.87,-4.78 1.87,-2.76 1.87,-2.75 1.86,2.82 1.87,-4.78 1.87,5.07 1.87,-2.75 1.87,3.31 1.86,5.07 1.87,-3.65 1.87,-8.33 1.87,2.82 1.87,5.08 1.86,2.82 1.87,3.31 1.87,-2.76 1.87,5.08 1.87,3.31 1.86,-2.76 1.87,3.32 1.87,2.82 1.87,2.82 1.87,3.31 1.86,3.31 1.87,5.08 1.87,2.82 1.87,-10.86 1.87,5.07 1.86,2.82 1.87,-2.75 1.87,-2.76 1.87,5.07 1.87,-2.75 1.87,5.07 1.86,2.82 1.87,2.82 1.87,2.82 1.87,2.83 1.87,5.07" /><text
           id="text352"
           style="font-variant:normal;font-weight:normal;font-size:11px;font-family:Helvetica;-inkscape-font-specification:Helvetica;writing-mode:lr-tb;fill:#440154;fill-opacity:1;fill-rule:nonzero;stroke:none"
           transform="matrix(1,0,0,-1,415.54,273.63)"><tspan
             id="tspan350"
             y="0"
             x="0 0 3.0580001 6.1160002 9.7790003 12.221 18.337 21.065001 27.181">.ρ.(info)</tspan></text>
<text
           id="text356"
           style="font-variant:normal;font-weight:normal;font-size:11px;font-family:Helvetica;-inkscape-font-specification:Helvetica;writing-mode:lr-tb;fill:#440154;fill-opacity:1;fill-rule:nonzero;stroke:none"
           transform="matrix(1,0,0,-1,426.24,236.63)"><tspan
             id="tspan354"
             y="0"
             x="0 0 3.0580001 6.1160002 9.7790003 15.895 18.952999 21.395 24.452999">.ρ.(n.i.)</tspan></text>
</g></g><g
       id="g358" /><g
       id="g360" /><g
       id="g362" /><g
       id="g364" /><g
       id="g366" /><g
       id="g368" /><g
       id="g370" /><g
       id="g372" /><g
       id="g374" /><g
       id="g376" /><g
       id="g378" /><g
       id="g380" /><g
       id="g382"><path
         id="path384"
         style="fill:none;stroke:#000000;stroke-width:1.07000005;stroke-linecap:butt;stroke-linejoin:round;stroke-miterlimit:10;stroke-dasharray:none;stroke-opacity:1"
         d="M 320.93,195.54 V 420.18" /></g><g
       id="g386" /><g
       id="g388" /><g
       id="g390"><text
         id="text394"
         style="font-variant:normal;font-weight:normal;font-size:11px;font-family:Helvetica;-inkscape-font-specification:Helvetica;writing-mode:lr-tb;fill:#4d4d4d;fill-opacity:1;fill-rule:nonzero;stroke:none"
         transform="matrix(1,0,0,-1,285.11,248.97)"><tspan
           id="tspan392"
           y="0"
           x="0 6.1160002 12.232 18.656 24.771999">1e+04</tspan></text>
<text
         id="text398"
         style="font-variant:normal;font-weight:normal;font-size:11px;font-family:Helvetica;-inkscape-font-specification:Helvetica;writing-mode:lr-tb;fill:#4d4d4d;fill-opacity:1;fill-rule:nonzero;stroke:none"
         transform="matrix(1,0,0,-1,285.11,307.93)"><tspan
           id="tspan396"
           y="0"
           x="0 6.1160002 12.232 18.656 24.771999">1e+09</tspan></text>
<text
         id="text402"
         style="font-variant:normal;font-weight:normal;font-size:11px;font-family:Helvetica;-inkscape-font-specification:Helvetica;writing-mode:lr-tb;fill:#4d4d4d;fill-opacity:1;fill-rule:nonzero;stroke:none"
         transform="matrix(1,0,0,-1,285.11,366.89)"><tspan
           id="tspan400"
           y="0"
           x="0 6.1160002 12.232 18.656 24.771999">1e+14</tspan></text>
</g><g
       id="g404" /><g
       id="g406"><path
         id="path408"
         style="fill:none;stroke:#333333;stroke-width:1.07000005;stroke-linecap:butt;stroke-linejoin:round;stroke-miterlimit:10;stroke-dasharray:none;stroke-opacity:1"
         d="m 318.19,252.92 h 2.74" /><path
         id="path410"
         style="fill:none;stroke:#333333;stroke-width:1.07000005;stroke-linecap:butt;stroke-linejoin:round;stroke-miterlimit:10;stroke-dasharray:none;stroke-opacity:1"
         d="m 318.19,311.88 h 2.74" /><path
         id="path412"
         style="fill:none;stroke:#333333;stroke-width:1.07000005;stroke-linecap:butt;stroke-linejoin:round;stroke-miterlimit:10;stroke-dasharray:none;stroke-opacity:1"
         d="m 318.19,370.84 h 2.74" /></g><g
       id="g414" /><g
       id="g416" /><g
       id="g418" /><g
       id="g420" /><g
       id="g422" /><g
       id="g424" /><g
       id="g426"><path
         id="path428"
         style="fill:none;stroke:#000000;stroke-width:1.07000005;stroke-linecap:butt;stroke-linejoin:round;stroke-miterlimit:10;stroke-dasharray:none;stroke-opacity:1"
         d="M 320.93,195.54 H 522.31" /></g><g
       id="g430" /><g
       id="g432" /><g
       id="g434"><path
         id="path436"
         style="fill:none;stroke:#333333;stroke-width:1.07000005;stroke-linecap:butt;stroke-linejoin:round;stroke-miterlimit:10;stroke-dasharray:none;stroke-opacity:1"
         d="m 328.22,192.8 v 2.74" /><path
         id="path438"
         style="fill:none;stroke:#333333;stroke-width:1.07000005;stroke-linecap:butt;stroke-linejoin:round;stroke-miterlimit:10;stroke-dasharray:none;stroke-opacity:1"
         d="m 374.92,192.8 v 2.74" /><path
         id="path440"
         style="fill:none;stroke:#333333;stroke-width:1.07000005;stroke-linecap:butt;stroke-linejoin:round;stroke-miterlimit:10;stroke-dasharray:none;stroke-opacity:1"
         d="m 421.62,192.8 v 2.74" /><path
         id="path442"
         style="fill:none;stroke:#333333;stroke-width:1.07000005;stroke-linecap:butt;stroke-linejoin:round;stroke-miterlimit:10;stroke-dasharray:none;stroke-opacity:1"
         d="m 468.32,192.8 v 2.74" /><path
         id="path444"
         style="fill:none;stroke:#333333;stroke-width:1.07000005;stroke-linecap:butt;stroke-linejoin:round;stroke-miterlimit:10;stroke-dasharray:none;stroke-opacity:1"
         d="m 515.02,192.8 v 2.74" /></g><g
       id="g446" /><g
       id="g448"><text
         id="text452"
         style="font-variant:normal;font-weight:normal;font-size:11px;font-family:Helvetica;-inkscape-font-specification:Helvetica;writing-mode:lr-tb;fill:#4d4d4d;fill-opacity:1;fill-rule:nonzero;stroke:none"
         transform="matrix(1,0,0,-1,325.16,182.71)"><tspan
           id="tspan450"
           y="0"
           x="0">0</tspan></text>
<text
         id="text456"
         style="font-variant:normal;font-weight:normal;font-size:11px;font-family:Helvetica;-inkscape-font-specification:Helvetica;writing-mode:lr-tb;fill:#4d4d4d;fill-opacity:1;fill-rule:nonzero;stroke:none"
         transform="matrix(1,0,0,-1,368.8,182.71)"><tspan
           id="tspan454"
           y="0"
           x="0 6.1160002">25</tspan></text>
<text
         id="text460"
         style="font-variant:normal;font-weight:normal;font-size:11px;font-family:Helvetica;-inkscape-font-specification:Helvetica;writing-mode:lr-tb;fill:#4d4d4d;fill-opacity:1;fill-rule:nonzero;stroke:none"
         transform="matrix(1,0,0,-1,415.5,182.71)"><tspan
           id="tspan458"
           y="0"
           x="0 6.1160002">50</tspan></text>
<text
         id="text464"
         style="font-variant:normal;font-weight:normal;font-size:11px;font-family:Helvetica;-inkscape-font-specification:Helvetica;writing-mode:lr-tb;fill:#4d4d4d;fill-opacity:1;fill-rule:nonzero;stroke:none"
         transform="matrix(1,0,0,-1,462.21,182.71)"><tspan
           id="tspan462"
           y="0"
           x="0 6.1160002">75</tspan></text>
<text
         id="text468"
         style="font-variant:normal;font-weight:normal;font-size:11px;font-family:Helvetica;-inkscape-font-specification:Helvetica;writing-mode:lr-tb;fill:#4d4d4d;fill-opacity:1;fill-rule:nonzero;stroke:none"
         transform="matrix(1,0,0,-1,505.85,182.71)"><tspan
           id="tspan466"
           y="0"
           x="0 6.1160002 12.232">100</tspan></text>
</g><g
       id="g470" /><g
       id="g472" /><g
       id="g474" /><g
       id="g476" /><g
       id="g478" /><g
       id="g480" /><g
       id="g482" /><g
       id="g484" /><g
       id="g486" /><g
       id="g488" /><g
       id="g490" /><g
       id="g492" /><g
       id="g494" /><g
       id="g496" /><g
       id="g498" /><g
       id="g500" /><g
       id="g502" /><g
       id="g504" /><g
       id="g506" /><g
       id="g508" /><g
       id="g510"><text
         id="text514"
         style="font-variant:normal;font-weight:normal;font-size:14px;font-family:Helvetica;-inkscape-font-specification:Helvetica;writing-mode:lr-tb;fill:#000000;fill-opacity:1;fill-rule:nonzero;stroke:none"
         transform="matrix(1,0,0,-1,248.34,145.49)"><tspan
           id="tspan512"
           y="0"
           x="0 8.5539999 11.662 23.323999">Time</tspan></text>
</g><g
       id="g516" /><g
       id="g518" /><g
       id="g520" /><g
       id="g522" /><g
       id="g524" /><g
       id="g526" /><g
       id="g528" /><g
       id="g530" /><g
       id="g532" /><g
       id="g534" /><g
       id="g536" /><g
       id="g538"><g
         clip-path="url(#clipPath544)"
         id="g540"><path
           id="path546"
           style="fill:#ffffff;fill-opacity:1;fill-rule:nonzero;stroke:#ffffff;stroke-width:1.07000005;stroke-linecap:round;stroke-linejoin:round;stroke-miterlimit:10;stroke-dasharray:none;stroke-opacity:1"
           d="M 0,0 H 263.89 V 141.89 H 0 Z" /></g></g><g
       id="g548" /><g
       id="g550"><g
         clip-path="url(#clipPath556)"
         id="g552"><path
           id="path558"
           style="fill:#ffffff;fill-opacity:1;fill-rule:nonzero;stroke:none"
           d="m 41.44,36.4 h 216.98 v 100 H 41.44 Z" /><path
           id="path560"
           style="fill:#595959;fill-opacity:1;fill-rule:nonzero;stroke:none"
           d="M 49.19,40.95 H 95.68 V 59.66 H 49.19 Z" /><path
           id="path562"
           style="fill:#595959;fill-opacity:1;fill-rule:nonzero;stroke:none"
           d="m 100.85,40.95 h 46.49 v 90.91 h -46.49 z" /><path
           id="path564"
           style="fill:#595959;fill-opacity:1;fill-rule:nonzero;stroke:none"
           d="M 152.51,40.95 H 199 v 72.2 h -46.49 z" /><path
           id="path566"
           style="fill:#595959;fill-opacity:1;fill-rule:nonzero;stroke:none"
           d="m 204.17,40.95 h 46.49 v 71.88 h -46.49 z" /></g></g><g
       id="g568" /><g
       id="g570" /><g
       id="g572" /><g
       id="g574" /><g
       id="g576" /><g
       id="g578" /><g
       id="g580" /><g
       id="g582" /><g
       id="g584" /><g
       id="g586" /><g
       id="g588" /><g
       id="g590" /><g
       id="g592"><path
         id="path594"
         style="fill:none;stroke:#000000;stroke-width:1.07000005;stroke-linecap:butt;stroke-linejoin:round;stroke-miterlimit:10;stroke-dasharray:none;stroke-opacity:1"
         d="M 41.44,36.4 V 136.41" /></g><g
       id="g596" /><g
       id="g598" /><g
       id="g600"><text
         id="text604"
         style="font-variant:normal;font-weight:normal;font-size:11px;font-family:Helvetica;-inkscape-font-specification:Helvetica;writing-mode:lr-tb;fill:#4d4d4d;fill-opacity:1;fill-rule:nonzero;stroke:none"
         transform="matrix(1,0,0,-1,21.22,37)"><tspan
           id="tspan602"
           y="0"
           x="0 6.1160002 9.1739998">0.0</tspan></text>
<text
         id="text608"
         style="font-variant:normal;font-weight:normal;font-size:11px;font-family:Helvetica;-inkscape-font-specification:Helvetica;writing-mode:lr-tb;fill:#4d4d4d;fill-opacity:1;fill-rule:nonzero;stroke:none"
         transform="matrix(1,0,0,-1,21.22,56.74)"><tspan
           id="tspan606"
           y="0"
           x="0 6.1160002 9.1739998">0.5</tspan></text>
<text
         id="text612"
         style="font-variant:normal;font-weight:normal;font-size:11px;font-family:Helvetica;-inkscape-font-specification:Helvetica;writing-mode:lr-tb;fill:#4d4d4d;fill-opacity:1;fill-rule:nonzero;stroke:none"
         transform="matrix(1,0,0,-1,21.22,76.48)"><tspan
           id="tspan610"
           y="0"
           x="0 6.1160002 9.1739998">1.0</tspan></text>
<text
         id="text616"
         style="font-variant:normal;font-weight:normal;font-size:11px;font-family:Helvetica;-inkscape-font-specification:Helvetica;writing-mode:lr-tb;fill:#4d4d4d;fill-opacity:1;fill-rule:nonzero;stroke:none"
         transform="matrix(1,0,0,-1,21.22,96.22)"><tspan
           id="tspan614"
           y="0"
           x="0 6.1160002 9.1739998">1.5</tspan></text>
<text
         id="text620"
         style="font-variant:normal;font-weight:normal;font-size:11px;font-family:Helvetica;-inkscape-font-specification:Helvetica;writing-mode:lr-tb;fill:#4d4d4d;fill-opacity:1;fill-rule:nonzero;stroke:none"
         transform="matrix(1,0,0,-1,21.22,115.96)"><tspan
           id="tspan618"
           y="0"
           x="0 6.1160002 9.1739998">2.0</tspan></text>
</g><g
       id="g622" /><g
       id="g624"><path
         id="path626"
         style="fill:none;stroke:#333333;stroke-width:1.07000005;stroke-linecap:butt;stroke-linejoin:round;stroke-miterlimit:10;stroke-dasharray:none;stroke-opacity:1"
         d="m 38.7,40.95 h 2.74" /><path
         id="path628"
         style="fill:none;stroke:#333333;stroke-width:1.07000005;stroke-linecap:butt;stroke-linejoin:round;stroke-miterlimit:10;stroke-dasharray:none;stroke-opacity:1"
         d="m 38.7,60.69 h 2.74" /><path
         id="path630"
         style="fill:none;stroke:#333333;stroke-width:1.07000005;stroke-linecap:butt;stroke-linejoin:round;stroke-miterlimit:10;stroke-dasharray:none;stroke-opacity:1"
         d="m 38.7,80.43 h 2.74" /><path
         id="path632"
         style="fill:none;stroke:#333333;stroke-width:1.07000005;stroke-linecap:butt;stroke-linejoin:round;stroke-miterlimit:10;stroke-dasharray:none;stroke-opacity:1"
         d="m 38.7,100.17 h 2.74" /><path
         id="path634"
         style="fill:none;stroke:#333333;stroke-width:1.07000005;stroke-linecap:butt;stroke-linejoin:round;stroke-miterlimit:10;stroke-dasharray:none;stroke-opacity:1"
         d="m 38.7,119.91 h 2.74" /></g><g
       id="g636" /><g
       id="g638" /><g
       id="g640" /><g
       id="g642" /><g
       id="g644" /><g
       id="g646" /><g
       id="g648"><path
         id="path650"
         style="fill:none;stroke:#000000;stroke-width:1.07000005;stroke-linecap:butt;stroke-linejoin:round;stroke-miterlimit:10;stroke-dasharray:none;stroke-opacity:1"
         d="M 41.44,36.4 H 258.41" /></g><g
       id="g652" /><g
       id="g654" /><g
       id="g656"><path
         id="path658"
         style="fill:none;stroke:#333333;stroke-width:1.07000005;stroke-linecap:butt;stroke-linejoin:round;stroke-miterlimit:10;stroke-dasharray:none;stroke-opacity:1"
         d="M 72.44,33.66 V 36.4" /><path
         id="path660"
         style="fill:none;stroke:#333333;stroke-width:1.07000005;stroke-linecap:butt;stroke-linejoin:round;stroke-miterlimit:10;stroke-dasharray:none;stroke-opacity:1"
         d="M 124.1,33.66 V 36.4" /><path
         id="path662"
         style="fill:none;stroke:#333333;stroke-width:1.07000005;stroke-linecap:butt;stroke-linejoin:round;stroke-miterlimit:10;stroke-dasharray:none;stroke-opacity:1"
         d="M 175.76,33.66 V 36.4" /><path
         id="path664"
         style="fill:none;stroke:#333333;stroke-width:1.07000005;stroke-linecap:butt;stroke-linejoin:round;stroke-miterlimit:10;stroke-dasharray:none;stroke-opacity:1"
         d="M 227.42,33.66 V 36.4" /></g><g
       id="g666" /><g
       id="g668"><text
         id="text672"
         style="font-variant:normal;font-weight:normal;font-size:11px;font-family:Helvetica;-inkscape-font-specification:Helvetica;writing-mode:lr-tb;fill:#4d4d4d;fill-opacity:1;fill-rule:nonzero;stroke:none"
         transform="matrix(1,0,0,-1,58.38,23.57)"><tspan
           id="tspan670"
           y="0"
           x="0 0 3.0580001 6.1160002 9.7790003 15.895 18.952999 21.395 24.452999">.ρ.(n.i.)</tspan></text>
<text
         id="text676"
         style="font-variant:normal;font-weight:normal;font-size:11px;font-family:Helvetica;-inkscape-font-specification:Helvetica;writing-mode:lr-tb;fill:#4d4d4d;fill-opacity:1;fill-rule:nonzero;stroke:none"
         transform="matrix(1,0,0,-1,108.67,23.57)"><tspan
           id="tspan674"
           y="0"
           x="0 0 3.0580001 6.1160002 9.7790003 12.221 18.337 21.065001 27.181">.ρ.(info)</tspan></text>
<text
         id="text684"
         style="font-variant:normal;font-weight:normal;font-size:11px;font-family:Helvetica;-inkscape-font-specification:Helvetica;writing-mode:lr-tb;fill:#4d4d4d;fill-opacity:1;fill-rule:nonzero;stroke:none"
         transform="matrix(1,0,0,-1,213.06,23.57)"><tspan
           id="tspan682"
           y="0"
           x="0 3.0580001 6.7210002 14.058 17.115999 25.058001">I(E;C)</tspan></text>
</g><g
       id="g686" /><g
       id="g688" /><g
       id="g690" /><g
       id="g692" /><g
       id="g694" /><g
       id="g696" /><g
       id="g698" /><g
       id="g700"><text
         id="text704"
         style="font-variant:normal;font-weight:normal;font-size:14px;font-family:Helvetica;-inkscape-font-specification:Helvetica;writing-mode:lr-tb;fill:#000000;fill-opacity:1;fill-rule:nonzero;stroke:none"
         transform="matrix(0,1,1,0,15.53,8.81)"><tspan
           id="tspan702"
           y="0"
           x="0 8.5539999 11.662 15.554 23.337999 31.122 38.122002 45.122002 49.014 55.664001 63.448002 66.556 74.339996 82.124001 86.015999 89.124001 96.907997 100.38 108.164 113.176 124.838 132.62199 136.51401 139.62199 147.40601">Fitness value/information</tspan></text>
</g><g
       id="g706" /><g
       id="g708" /><g
       id="g710" /><g
       id="g712" /><g
       id="g714" /><g
       id="g716" /><g
       id="g718" /><g
       id="g720" /><g
       id="g722" /><g
       id="g724" /><g
       id="g726" /><g
       id="g728" /><g
       id="g730" /><g
       id="g732" /><g
       id="g734" /><g
       id="g736" /><g
       id="g738" /><g
       id="g740" /><g
       id="g742" /><g
       id="g744" /><g
       id="g746"><g
         clip-path="url(#clipPath752)"
         id="g748"><path
           id="path754"
           style="fill:#ffffff;fill-opacity:1;fill-rule:nonzero;stroke:#ffffff;stroke-width:1.07000005;stroke-linecap:round;stroke-linejoin:round;stroke-miterlimit:10;stroke-dasharray:none;stroke-opacity:1"
           d="M 263.89,0 H 527.78 V 141.89 H 263.89 Z" /></g></g><g
       id="g756" /><g
       id="g758"><g
         clip-path="url(#clipPath764)"
         id="g760"><path
           id="path766"
           style="fill:#ffffff;fill-opacity:1;fill-rule:nonzero;stroke:none"
           d="m 305.33,36.4 h 216.98 v 100 H 305.33 Z" /><path
           id="path768"
           style="fill:#595959;fill-opacity:1;fill-rule:nonzero;stroke:none"
           d="m 313.08,40.95 h 46.49 v 9.53 h -46.49 z" /><path
           id="path770"
           style="fill:#595959;fill-opacity:1;fill-rule:nonzero;stroke:none"
           d="m 364.74,40.95 h 46.49 v 18.31 h -46.49 z" /><path
           id="path772"
           style="fill:#595959;fill-opacity:1;fill-rule:nonzero;stroke:none"
           d="m 416.4,40.95 h 46.49 v 8.78 H 416.4 Z" /><path
           id="path774"
           style="fill:#595959;fill-opacity:1;fill-rule:nonzero;stroke:none"
           d="m 468.07,40.95 h 46.49 v 90.91 h -46.49 z" /></g></g><g
       id="g776" /><g
       id="g778" /><g
       id="g780" /><g
       id="g782" /><g
       id="g784" /><g
       id="g786" /><g
       id="g788" /><g
       id="g790" /><g
       id="g792" /><g
       id="g794" /><g
       id="g796" /><g
       id="g798" /><g
       id="g800"><path
         id="path802"
         style="fill:none;stroke:#000000;stroke-width:1.07000005;stroke-linecap:butt;stroke-linejoin:round;stroke-miterlimit:10;stroke-dasharray:none;stroke-opacity:1"
         d="M 305.33,36.4 V 136.41" /></g><g
       id="g804" /><g
       id="g806" /><g
       id="g808"><text
         id="text812"
         style="font-variant:normal;font-weight:normal;font-size:11px;font-family:Helvetica;-inkscape-font-specification:Helvetica;writing-mode:lr-tb;fill:#4d4d4d;fill-opacity:1;fill-rule:nonzero;stroke:none"
         transform="matrix(1,0,0,-1,285.11,37)"><tspan
           id="tspan810"
           y="0"
           x="0 6.1160002 9.1739998">0.0</tspan></text>
<text
         id="text816"
         style="font-variant:normal;font-weight:normal;font-size:11px;font-family:Helvetica;-inkscape-font-specification:Helvetica;writing-mode:lr-tb;fill:#4d4d4d;fill-opacity:1;fill-rule:nonzero;stroke:none"
         transform="matrix(1,0,0,-1,285.11,61.86)"><tspan
           id="tspan814"
           y="0"
           x="0 6.1160002 9.1739998">0.5</tspan></text>
<text
         id="text820"
         style="font-variant:normal;font-weight:normal;font-size:11px;font-family:Helvetica;-inkscape-font-specification:Helvetica;writing-mode:lr-tb;fill:#4d4d4d;fill-opacity:1;fill-rule:nonzero;stroke:none"
         transform="matrix(1,0,0,-1,285.11,86.72)"><tspan
           id="tspan818"
           y="0"
           x="0 6.1160002 9.1739998">1.0</tspan></text>
<text
         id="text824"
         style="font-variant:normal;font-weight:normal;font-size:11px;font-family:Helvetica;-inkscape-font-specification:Helvetica;writing-mode:lr-tb;fill:#4d4d4d;fill-opacity:1;fill-rule:nonzero;stroke:none"
         transform="matrix(1,0,0,-1,285.11,111.58)"><tspan
           id="tspan822"
           y="0"
           x="0 6.1160002 9.1739998">1.5</tspan></text>
</g><g
       id="g826" /><g
       id="g828"><path
         id="path830"
         style="fill:none;stroke:#333333;stroke-width:1.07000005;stroke-linecap:butt;stroke-linejoin:round;stroke-miterlimit:10;stroke-dasharray:none;stroke-opacity:1"
         d="m 302.59,40.95 h 2.74" /><path
         id="path832"
         style="fill:none;stroke:#333333;stroke-width:1.07000005;stroke-linecap:butt;stroke-linejoin:round;stroke-miterlimit:10;stroke-dasharray:none;stroke-opacity:1"
         d="m 302.59,65.81 h 2.74" /><path
         id="path834"
         style="fill:none;stroke:#333333;stroke-width:1.07000005;stroke-linecap:butt;stroke-linejoin:round;stroke-miterlimit:10;stroke-dasharray:none;stroke-opacity:1"
         d="m 302.59,90.67 h 2.74" /><path
         id="path836"
         style="fill:none;stroke:#333333;stroke-width:1.07000005;stroke-linecap:butt;stroke-linejoin:round;stroke-miterlimit:10;stroke-dasharray:none;stroke-opacity:1"
         d="m 302.59,115.53 h 2.74" /></g><g
       id="g838" /><g
       id="g840" /><g
       id="g842" /><g
       id="g844" /><g
       id="g846" /><g
       id="g848" /><g
       id="g850"><path
         id="path852"
         style="fill:none;stroke:#000000;stroke-width:1.07000005;stroke-linecap:butt;stroke-linejoin:round;stroke-miterlimit:10;stroke-dasharray:none;stroke-opacity:1"
         d="M 305.33,36.4 H 522.31" /></g><g
       id="g854" /><g
       id="g856" /><g
       id="g858"><path
         id="path860"
         style="fill:none;stroke:#333333;stroke-width:1.07000005;stroke-linecap:butt;stroke-linejoin:round;stroke-miterlimit:10;stroke-dasharray:none;stroke-opacity:1"
         d="M 336.33,33.66 V 36.4" /><path
         id="path862"
         style="fill:none;stroke:#333333;stroke-width:1.07000005;stroke-linecap:butt;stroke-linejoin:round;stroke-miterlimit:10;stroke-dasharray:none;stroke-opacity:1"
         d="M 387.99,33.66 V 36.4" /><path
         id="path864"
         style="fill:none;stroke:#333333;stroke-width:1.07000005;stroke-linecap:butt;stroke-linejoin:round;stroke-miterlimit:10;stroke-dasharray:none;stroke-opacity:1"
         d="M 439.65,33.66 V 36.4" /><path
         id="path866"
         style="fill:none;stroke:#333333;stroke-width:1.07000005;stroke-linecap:butt;stroke-linejoin:round;stroke-miterlimit:10;stroke-dasharray:none;stroke-opacity:1"
         d="M 491.31,33.66 V 36.4" /></g><g
       id="g868" /><g
       id="g870"><text
         id="text874"
         style="font-variant:normal;font-weight:normal;font-size:11px;font-family:Helvetica;-inkscape-font-specification:Helvetica;writing-mode:lr-tb;fill:#4d4d4d;fill-opacity:1;fill-rule:nonzero;stroke:none"
         transform="matrix(1,0,0,-1,322.27,23.57)"><tspan
           id="tspan872"
           y="0"
           x="0 0 3.0580001 6.1160002 9.7790003 15.895 18.952999 21.395 24.452999">.ρ.(n.i.)</tspan></text>
<text
         id="text878"
         style="font-variant:normal;font-weight:normal;font-size:11px;font-family:Helvetica;-inkscape-font-specification:Helvetica;writing-mode:lr-tb;fill:#4d4d4d;fill-opacity:1;fill-rule:nonzero;stroke:none"
         transform="matrix(1,0,0,-1,372.57,23.57)"><tspan
           id="tspan876"
           y="0"
           x="0 0 3.0580001 6.1160002 9.7790003 12.221 18.337 21.065001 27.181">.ρ.(info)</tspan></text>
<text
         id="text882"
         style="font-variant:normal;font-weight:normal;font-size:11px;font-family:Helvetica;-inkscape-font-specification:Helvetica;writing-mode:lr-tb;fill:#4d4d4d;fill-opacity:1;fill-rule:nonzero;stroke:none"
         transform="matrix(1,0,0,-1,432.01,23.57)"><tspan
           y="10.343153"
           x="0"
           id="tspan880" /></text>
<text
         id="text886"
         style="font-variant:normal;font-weight:normal;font-size:11px;font-family:Helvetica;-inkscape-font-specification:Helvetica;writing-mode:lr-tb;fill:#4d4d4d;fill-opacity:1;fill-rule:nonzero;stroke:none"
         transform="matrix(1,0,0,-1,476.95,23.57)"><tspan
           id="tspan884"
           y="0"
           x="0 3.0580001 6.7210002 14.058 17.115999 25.058001">I(E;C)</tspan></text>
</g><g
       id="g888" /><g
       id="g890" /><g
       id="g892" /><g
       id="g894" /><g
       id="g896" /><g
       id="g898" /><g
       id="g900" /><g
       id="g902" /><g
       id="g904" /><g
       id="g906" /><g
       id="g908" /><g
       id="g910" /><g
       id="g912" /><g
       id="g914" /><g
       id="g916" /><g
       id="g918" /><g
       id="g920" /><g
       id="g922" /><g
       id="g924" /><g
       id="g926" /><g
       id="g928" /><g
       id="g930" /><text
       transform="scale(1,-1)"
       id="text934"
       y="-24.308105"
       x="64.298897"
       style="font-style:normal;font-variant:normal;font-weight:normal;font-stretch:normal;font-size:9px;line-height:1.25;font-family:Arial;-inkscape-font-specification:Arial;letter-spacing:0px;word-spacing:0px;fill:#000000;fill-opacity:1;stroke:none;stroke-width:0.75"
       xml:space="preserve"><tspan
         style="stroke-width:0.75"
         y="-16.201315"
         x="64.298897"
         id="tspan932"></tspan></text>
<text
       transform="scale(1,-1)"
       id="text938"
       y="-23.660507"
       x="170.94098"
       style="font-style:normal;font-variant:normal;font-weight:normal;font-stretch:normal;font-size:9px;line-height:1.25;font-family:Arial;-inkscape-font-specification:Arial;letter-spacing:0px;word-spacing:0px;fill:#000000;fill-opacity:1;stroke:none;stroke-width:0.75"
       xml:space="preserve"><tspan
         style="font-size:12px;stroke-width:0.75"
         y="-23.660507"
         x="170.94098"
         id="tspan936">Δρ</tspan></text>
<text
       transform="scale(1,-1)"
       id="text967"
       y="-22.092241"
       x="432.84137"
       style="font-style:normal;font-variant:normal;font-weight:normal;font-stretch:normal;font-size:9px;line-height:1.25;font-family:Arial;-inkscape-font-specification:Arial;letter-spacing:0px;word-spacing:0px;fill:#000000;fill-opacity:1;stroke:none;stroke-width:0.75"
       xml:space="preserve"><tspan
         style="font-size:12px;stroke-width:0.75"
         y="-22.092241"
         x="432.84137"
         id="tspan965">Δρ</tspan></text>
</g></svg>